<svg width="100" height="100" viewBox="0 0 100 100" fill="none" xmlns="http://www.w3.org/2000/svg">
<g clip-path="url(#clip0_100_503)">
<rect width="100" height="100" rx="50" fill="#F4FFEB"/>
<path d="M62.3463 42.1215C61.8439 42.5824 61.3211 43.0209 60.7872 43.4697L59.7425 44.3255L44.3983 41.8533L43.6626 40.7602C43.4913 40.5062 39.4943 34.4693 38.5601 26.527C37.9631 21.4619 39.7308 16.5093 43.4116 12.9471L44.4637 11.9201C45.1911 11.2116 46.3777 11.2948 47.0081 12.0939L49.2643 14.9787L54.7488 7.87003C55.5208 6.87392 57.0694 7.01559 57.6422 8.15533L61.2042 15.3315L64.9228 13.1326C65.6597 12.7033 66.596 12.8722 67.1249 13.5383L67.8372 14.4267C71.4705 18.9469 72.4485 24.8754 70.4576 30.2794C68.8404 34.7239 66.1062 38.7128 62.3463 42.1215Z" fill="#231F20"/>
<path d="M59.2839 40.7782C63.6775 37.0966 66.2097 33.0668 67.6178 29.246C69.1839 24.9924 68.4207 20.5528 66.0898 17.1608C65.8877 16.8733 65.6959 16.597 65.4715 16.33L59.9377 19.5981L55.8522 11.3808L49.2656 19.9324L45.5055 15.1173C42.6638 17.8686 41.0445 21.8626 41.5453 26.173C41.8358 28.6408 42.4566 30.9084 43.1462 32.8252C43.2226 33.0429 43.299 33.2606 43.3866 33.4681C43.3968 33.4793 43.3959 33.5007 43.3959 33.5007L59.2839 40.7782Z" fill="#FBE64C"/>
<path d="M53.4295 26.5088C55.7069 25.3575 57.0145 23.3588 56.3501 22.0447C55.6857 20.7305 53.301 20.5985 51.0237 21.7498C48.7463 22.9012 47.4387 24.8998 48.1031 26.2139C48.7674 27.5281 51.1522 27.6601 53.4295 26.5088Z" fill="#AFD9A5"/>
<path d="M66.1 17.172C68.4207 20.5528 69.184 24.9924 67.6281 29.2571C66.2311 33.0677 63.6877 37.1077 59.2941 40.7894L46.0468 38.6756C46.0468 38.6756 44.717 36.6884 43.4266 33.5342C43.4164 33.523 43.4173 33.5016 43.4173 33.5016C43.3297 33.2941 43.2533 33.0764 43.1555 32.8578L43.1769 32.8587L56.0724 34.9252C60.961 30.9539 63.7332 26.5806 65.251 22.4536C65.896 20.6693 66.1548 18.8899 66.1 17.172Z" fill="#AFD9A5"/>
<path d="M49.2165 137.125C79.8939 136.867 87.8472 116.219 81.939 100.766C76.0308 85.3142 83.3176 69.9225 79.8939 51.001C76.0308 29.6405 52.913 28.2771 52.913 28.2771C52.913 28.2771 33.0826 25.3381 20.1299 45.32C7.17728 65.3019 -4.41193 137.579 49.2165 137.125Z" fill="#8CC382"/>
<path d="M72.8191 47.3348C78.3789 63.5446 75.5157 78.3303 79.803 91.6617C78.4698 79.1484 82.6359 66.2109 79.8939 51.001C76.0308 29.6405 52.913 28.277 52.913 28.277C52.913 28.277 50.7769 27.9589 47.4592 28.2467C55.1248 29.0951 67.8199 32.7612 72.8191 47.3348Z" fill="#AFD9A5"/>
<path d="M44.1264 105.114C43.475 105.114 42.8691 104.675 42.6721 104.024L40.7482 97.3579C40.5209 96.555 40.9754 95.7217 41.7783 95.4794C42.5812 95.2521 43.4144 95.7066 43.6568 96.5095L45.5808 103.175C45.808 103.978 45.3535 104.811 44.5506 105.054C44.3991 105.099 44.2628 105.114 44.1264 105.114Z" fill="#17A582"/>
<path d="M65.3353 99.0848C64.5627 99.0848 63.8961 98.494 63.8204 97.6911L63.3205 91.6314C63.2447 90.7982 63.8658 90.071 64.699 89.9953C65.5323 89.9195 66.2594 90.5406 66.3352 91.3739L66.8351 97.4336C66.9108 98.2668 66.2897 98.994 65.4565 99.0697C65.4111 99.0848 65.3808 99.0848 65.3353 99.0848Z" fill="#17A582"/>
<path d="M31.2343 84.3749C30.8101 84.3749 30.3859 84.1931 30.083 83.8446L24.6292 77.4819C24.0838 76.8457 24.1596 75.8913 24.7959 75.3459C25.4321 74.8005 26.3865 74.8763 26.9319 75.5125L32.3857 81.8752C32.931 82.5115 32.8553 83.4659 32.219 84.0113C31.9463 84.2537 31.5827 84.3749 31.2343 84.3749Z" fill="#17A582"/>
<path d="M76.667 73.7552C76.1974 73.7552 75.7278 73.5279 75.4248 73.1189C74.94 72.4372 75.1066 71.4828 75.7884 71.0131L82.454 66.3169C83.1358 65.8321 84.0902 65.9987 84.5598 66.6804C85.0446 67.3622 84.8779 68.3166 84.1962 68.7862L77.5305 73.4825C77.273 73.6643 76.97 73.7552 76.667 73.7552Z" fill="#17A582"/>
<path d="M13.4945 76.0276C13.2673 76.0276 13.04 75.9821 12.8128 75.8609L9.78293 74.346C9.04062 73.9673 8.73763 73.0583 9.10121 72.316C9.47995 71.5737 10.3889 71.2707 11.1312 71.6343L14.1611 73.1492C14.9034 73.528 15.2064 74.4369 14.8428 75.1792C14.5853 75.7246 14.055 76.0276 13.4945 76.0276Z" fill="#17A582"/>
<path d="M30.3103 35.579C29.7801 35.579 29.265 35.2911 28.9772 34.8064L25.1899 27.9892C24.7808 27.262 25.0535 26.3379 25.7807 25.9289C26.5078 25.5198 27.432 25.7925 27.841 26.5197L31.6283 33.3369C32.0373 34.064 31.7647 34.9881 31.0375 35.3972C30.8254 35.5184 30.5679 35.579 30.3103 35.579Z" fill="#17A582"/>
<path d="M61.9722 34.8216C61.8207 34.8216 61.654 34.7913 61.4874 34.7458C60.6996 34.4883 60.2603 33.6248 60.533 32.837L62.1994 27.8377C62.457 27.05 63.3205 26.6106 64.1082 26.8833C64.896 27.1409 65.3353 28.0044 65.0626 28.7921L63.3962 33.7914C63.1993 34.4277 62.6084 34.8216 61.9722 34.8216Z" fill="#17A582"/>
<path d="M21.0087 48.1681C20.7663 48.1681 20.5239 48.1075 20.2966 47.9863L13.9339 44.5777C13.1916 44.1838 12.9189 43.2597 13.3128 42.5326C13.7067 41.7903 14.6308 41.5176 15.358 41.9115L21.7207 45.32C22.463 45.7139 22.7357 46.638 22.3418 47.3652C22.0691 47.8803 21.554 48.1681 21.0087 48.1681Z" fill="#17A582"/>
<path d="M50.6254 73.5583C50.1103 73.5583 49.5952 73.5129 49.065 73.4371C44.9292 72.7706 42.0812 69.7256 42.5963 66.4988C42.7326 65.6656 43.5052 65.105 44.3233 65.2414C45.1565 65.3777 45.717 66.1503 45.5807 66.9684C45.3383 68.4682 47.1562 70.0588 49.5346 70.4376C51.9131 70.8163 54.1249 69.8771 54.3673 68.3621C54.5036 67.5289 55.2762 66.9684 56.0943 67.1047C56.9275 67.2411 57.488 68.0137 57.3517 68.8318C56.9275 71.6647 54.0946 73.5583 50.6254 73.5583Z" fill="black"/>
<path d="M59.6297 67.3771C60.7946 67.5628 62.0486 65.771 62.4305 63.3749C62.8124 60.9789 62.1776 58.886 61.0127 58.7004C59.8477 58.5147 58.5937 60.3065 58.2118 62.7025C57.8299 65.0985 58.4647 67.1914 59.6297 67.3771Z" fill="black"/>
<path d="M38.0884 63.9395C39.2534 64.1252 40.5073 62.3333 40.8893 59.9373C41.2712 57.5413 40.6364 55.4484 39.4714 55.2627C38.3064 55.077 37.0525 56.8689 36.6706 59.2649C36.2886 61.6609 36.9234 63.7538 38.0884 63.9395Z" fill="black"/>
<path d="M65.9717 53.7885C65.4263 53.7885 64.8961 53.4855 64.6234 52.9704C63.6387 51.0465 61.4269 51.5616 61.1845 51.6373C60.3816 51.8645 59.5484 51.3949 59.3212 50.592C59.0939 49.7891 59.5636 48.9407 60.3665 48.7135C62.0178 48.2439 65.593 48.2439 67.32 51.5919C67.6987 52.3342 67.4109 53.2431 66.6686 53.637C66.4413 53.7279 66.199 53.7885 65.9717 53.7885Z" fill="black"/>
<path d="M37.7485 49.2892C37.3546 49.2892 36.9759 49.1377 36.6729 48.8347C36.0821 48.2439 36.0821 47.2743 36.6881 46.6986C39.3544 44.0627 42.763 45.1686 44.187 46.123C44.8839 46.5926 45.0656 47.5318 44.596 48.2287C44.1264 48.9256 43.2023 49.1074 42.5054 48.6529C42.2782 48.5014 40.3542 47.3349 38.8241 48.8498C38.5211 49.1377 38.1273 49.2892 37.7485 49.2892Z" fill="black"/>
<path d="M67.2468 72.4935C70.0394 72.9386 72.458 72.3282 72.649 71.1302C72.84 69.9322 70.7309 68.6002 67.9383 68.1551C65.1457 67.71 62.727 68.3203 62.5361 69.5183C62.3451 70.7163 64.4542 72.0483 67.2468 72.4935Z" fill="#AFD9A5"/>
<path d="M30.6176 66.6473C33.4102 67.0924 35.8289 66.482 36.0198 65.284C36.2108 64.086 34.1017 62.754 31.3091 62.3089C28.5165 61.8638 26.0979 62.4741 25.9069 63.6721C25.716 64.8701 27.825 66.2021 30.6176 66.6473Z" fill="#AFD9A5"/>
<path d="M74.228 131.338C73.7736 131.338 73.3191 131.126 73.0161 130.747C72.5162 130.08 72.6374 129.126 73.3039 128.626C81.6057 122.293 84.4387 111.568 80.515 101.312C77.167 92.5554 77.8942 83.9506 78.6516 74.8308C79.2728 67.3773 79.909 59.6815 78.3941 51.2736C76.8943 42.9567 72.1677 36.8212 64.381 33.0339C58.4576 30.1555 52.8675 29.7919 52.8221 29.7768C52.7766 29.7768 52.7312 29.7768 52.6857 29.7616C52.6403 29.7616 47.8531 29.0951 41.6419 30.7918C33.3401 33.049 26.5381 38.2149 21.4025 46.138C16.9486 53.0158 11.7675 68.2257 10.8889 85.3595C9.93445 104.054 14.5247 118.93 23.8112 127.232C24.4323 127.793 24.4929 128.747 23.9324 129.368C23.3719 129.989 22.4175 130.05 21.7963 129.489C16.4032 124.657 12.4947 117.991 10.1768 109.644C8.19228 102.463 7.40451 94.2522 7.85899 85.208C8.25287 77.391 9.58601 69.2558 11.7069 61.6963C13.6612 54.6974 16.2063 48.577 18.8574 44.4867C21.9175 39.7602 25.614 35.8819 29.8558 32.9581C33.2492 30.61 37.0062 28.883 40.9905 27.8225C47.4592 26.0955 52.4131 26.656 53.0645 26.7469C53.7613 26.7924 59.4272 27.2771 65.6081 30.2464C74.2583 34.4125 79.7121 41.4872 81.3785 50.7131C82.9692 59.5148 82.3026 67.4076 81.6663 75.058C80.9392 83.8143 80.2423 92.101 83.3479 100.206C85.4082 105.584 85.8475 111.219 84.6204 116.506C83.2873 122.278 80.0151 127.278 75.137 131.004C74.8643 131.247 74.5462 131.338 74.228 131.338Z" fill="black"/>
<path d="M79.7273 85.0869C79.7273 85.0869 87.6049 94.631 84.2721 106.902C80.9392 119.173 64.2296 122.4 59.1243 117.052C54.3522 112.053 57.4578 101.297 67.5624 106.947C67.5624 106.947 78.6669 103.569 79.7273 85.0869Z" fill="#8CC382"/>
<path d="M80.924 102.009C82.6964 95.5096 81.3027 89.7681 79.6211 85.8141C81.5905 88.7985 85.8626 96.7367 83.2418 106.357C79.909 118.627 63.1993 121.854 58.094 116.507C57.0032 115.355 56.3215 113.916 56.0488 112.431C61.4571 117.385 77.6517 114.068 80.924 102.009Z" fill="#17A582"/>
<path d="M71.5013 106.341C70.8802 106.341 70.3045 105.963 70.0773 105.357L67.9564 99.5999C67.6685 98.8122 68.0624 97.9487 68.8502 97.6608C69.6379 97.373 70.5014 97.7669 70.7893 98.5546L72.9102 104.311C73.198 105.099 72.8041 105.963 72.0164 106.25C71.8497 106.311 71.6679 106.341 71.5013 106.341Z" fill="#17A582"/>
<path d="M66.4717 121.051C62.9268 121.051 59.8515 120.021 58.0184 118.097C56.5338 116.537 55.6248 114.446 55.443 112.219C55.2612 110.023 55.8521 107.887 57.0337 106.357C58.1699 104.902 59.7606 104.039 61.6542 103.872C63.4722 103.705 65.4719 104.19 67.6382 105.296C68.5169 104.902 70.3651 103.887 72.2587 101.781C75.7431 97.9184 77.8034 92.1162 78.2124 85.0112C78.2427 84.3901 78.6669 83.8447 79.2577 83.6629C79.8485 83.466 80.5 83.6629 80.8938 84.1325C80.9847 84.2386 83.0299 86.7534 84.6509 90.8437C86.8021 96.2823 87.1808 101.978 85.7265 107.311C84.8175 110.674 82.8784 113.689 80.1212 116.022C77.7125 118.082 74.7281 119.597 71.4861 120.415C69.7894 120.839 68.0775 121.051 66.4717 121.051ZM62.3663 106.856C61.1392 106.856 60.1393 107.311 59.4424 108.22C57.8518 110.265 58.2153 113.901 60.2302 116.007C62.1239 117.991 66.3657 118.582 70.7741 117.461C76.8793 115.916 81.3786 111.81 82.8178 106.493C84.7418 99.403 82.6512 93.2373 80.7726 89.5711C79.591 96.8882 76.7429 101.388 74.3645 103.963C71.2134 107.387 68.1381 108.341 68.0018 108.387C67.6079 108.508 67.1837 108.462 66.8201 108.265C65.1234 107.326 63.6236 106.856 62.3663 106.856Z" fill="black"/>
<path d="M9.57085 82.5115C9.57085 82.5115 1.69322 92.0555 5.02606 104.326C8.35891 116.597 25.0686 119.824 30.1739 114.476C34.9459 109.477 31.8403 98.7212 21.7357 104.372C21.7357 104.372 10.6313 100.994 9.57085 82.5115Z" fill="#8CC382"/>
<path d="M7.14701 100.191C5.37455 93.6916 6.76828 87.9501 8.44985 83.9961C6.48045 86.9805 2.20835 94.9187 4.82917 104.539C8.16202 116.809 24.8717 120.036 29.977 114.689C31.0677 113.537 31.7495 112.098 32.0222 110.613C26.6139 115.567 10.4193 112.25 7.14701 100.191Z" fill="#17A582"/>
<path d="M17.797 103.766C17.6304 103.766 17.4486 103.736 17.2668 103.675C16.479 103.387 16.0851 102.509 16.373 101.736L18.4939 95.9792C18.7817 95.1914 19.6604 94.7976 20.433 95.0854C21.2208 95.3732 21.6146 96.2519 21.3268 97.0245L19.2059 102.781C18.9938 103.387 18.4181 103.766 17.797 103.766Z" fill="#17A582"/>
<path d="M22.8115 118.476C21.2056 118.476 19.5089 118.264 17.7819 117.825C14.5551 117.006 11.5707 115.492 9.14681 113.431C6.38964 111.083 4.45053 108.068 3.54157 104.72C2.08724 99.3878 2.46597 93.6917 4.61717 88.2531C6.23815 84.1628 8.29845 81.648 8.37419 81.542C8.76808 81.0572 9.41949 80.8754 10.0103 81.0723C10.6011 81.2693 11.0102 81.7995 11.0556 82.4206C11.4647 89.5256 13.525 95.3278 17.0093 99.1909C18.8878 101.281 20.736 102.296 21.6298 102.706C23.7962 101.6 25.811 101.13 27.6138 101.281C29.5075 101.448 31.0981 102.312 32.2343 103.766C33.416 105.296 34.0068 107.432 33.825 109.629C33.6432 111.871 32.7343 113.946 31.2496 115.507C29.4317 117.446 26.3564 118.476 22.8115 118.476ZM8.52569 87.0108C8.14695 87.738 7.76822 88.5712 7.41979 89.4802C5.51098 94.3431 5.20799 99.206 6.49568 103.933C7.93487 109.25 12.4494 113.355 18.5394 114.901C22.9478 116.022 27.1896 115.431 29.0833 113.431C31.083 111.325 31.4617 107.69 29.871 105.644C28.447 103.811 25.8262 103.842 22.4933 105.705C22.1298 105.902 21.7056 105.947 21.3117 105.826C21.1753 105.781 18.1 104.826 14.949 101.403C12.5554 98.8273 9.70733 94.328 8.52569 87.0108Z" fill="black"/>
</g>
<rect x="1.5" y="1.5" width="97" height="97" rx="48.5" stroke="#003B0A" stroke-width="3"/>
<defs>
<clipPath id="clip0_100_503">
<rect width="100" height="100" rx="50" fill="white"/>
</clipPath>
</defs>
</svg>
