<svg width="295" height="100" viewBox="0 0 295 100" fill="none" xmlns="http://www.w3.org/2000/svg">
<g clip-path="url(#clip0_100_502)">
<rect width="100" height="100" rx="50" fill="#F4FFEB"/>
<path d="M62.3463 42.1215C61.8439 42.5824 61.3211 43.0209 60.7872 43.4697L59.7425 44.3255L44.3983 41.8533L43.6626 40.7602C43.4913 40.5062 39.4943 34.4693 38.5601 26.527C37.9631 21.4619 39.7308 16.5093 43.4116 12.9471L44.4637 11.9201C45.1911 11.2116 46.3777 11.2948 47.0081 12.0939L49.2643 14.9787L54.7488 7.87003C55.5208 6.87392 57.0694 7.01559 57.6422 8.15533L61.2042 15.3315L64.9228 13.1326C65.6597 12.7033 66.596 12.8722 67.1249 13.5383L67.8372 14.4267C71.4705 18.9469 72.4485 24.8754 70.4576 30.2794C68.8404 34.7239 66.1062 38.7128 62.3463 42.1215Z" fill="#231F20"/>
<path d="M59.2839 40.7782C63.6775 37.0966 66.2097 33.0668 67.6178 29.246C69.1839 24.9924 68.4207 20.5528 66.0898 17.1608C65.8877 16.8733 65.6959 16.597 65.4715 16.33L59.9377 19.5981L55.8522 11.3808L49.2656 19.9324L45.5055 15.1173C42.6638 17.8686 41.0445 21.8626 41.5453 26.173C41.8358 28.6408 42.4566 30.9084 43.1462 32.8252C43.2226 33.0429 43.299 33.2606 43.3866 33.4681C43.3968 33.4793 43.3959 33.5007 43.3959 33.5007L59.2839 40.7782Z" fill="#FBE64C"/>
<path d="M53.4295 26.5088C55.7069 25.3575 57.0145 23.3588 56.3501 22.0447C55.6857 20.7305 53.301 20.5985 51.0237 21.7498C48.7463 22.9012 47.4387 24.8998 48.1031 26.2139C48.7674 27.5281 51.1522 27.6601 53.4295 26.5088Z" fill="#AFD9A5"/>
<path d="M66.1 17.172C68.4207 20.5528 69.184 24.9924 67.6281 29.2571C66.2311 33.0677 63.6877 37.1077 59.2941 40.7894L46.0468 38.6756C46.0468 38.6756 44.717 36.6884 43.4266 33.5342C43.4164 33.523 43.4173 33.5016 43.4173 33.5016C43.3297 33.2941 43.2533 33.0764 43.1555 32.8578L43.1769 32.8587L56.0724 34.9252C60.961 30.9539 63.7332 26.5806 65.251 22.4536C65.896 20.6693 66.1548 18.8899 66.1 17.172Z" fill="#AFD9A5"/>
<path d="M49.2165 137.125C79.8939 136.867 87.8472 116.219 81.939 100.766C76.0308 85.3142 83.3176 69.9225 79.8939 51.001C76.0308 29.6405 52.913 28.2771 52.913 28.2771C52.913 28.2771 33.0826 25.3381 20.1299 45.32C7.17728 65.3019 -4.41193 137.579 49.2165 137.125Z" fill="#8CC382"/>
<path d="M72.8191 47.3348C78.3789 63.5446 75.5157 78.3303 79.803 91.6617C78.4698 79.1484 82.6359 66.2109 79.8939 51.001C76.0308 29.6405 52.913 28.277 52.913 28.277C52.913 28.277 50.7769 27.9589 47.4592 28.2467C55.1248 29.0951 67.8199 32.7612 72.8191 47.3348Z" fill="#AFD9A5"/>
<path d="M44.1264 105.114C43.475 105.114 42.8691 104.675 42.6721 104.024L40.7482 97.3579C40.5209 96.555 40.9754 95.7217 41.7783 95.4794C42.5812 95.2521 43.4144 95.7066 43.6568 96.5095L45.5808 103.175C45.808 103.978 45.3535 104.811 44.5506 105.054C44.3991 105.099 44.2628 105.114 44.1264 105.114Z" fill="#17A582"/>
<path d="M65.3354 99.0848C64.5628 99.0848 63.8963 98.494 63.8205 97.6911L63.3206 91.6314C63.2448 90.7982 63.866 90.071 64.6992 89.9953C65.5324 89.9195 66.2595 90.5406 66.3353 91.3739L66.8352 97.4336C66.911 98.2668 66.2898 98.994 65.4566 99.0697C65.4112 99.0848 65.3809 99.0848 65.3354 99.0848Z" fill="#17A582"/>
<path d="M31.2343 84.3749C30.8101 84.3749 30.3859 84.1931 30.083 83.8446L24.6292 77.4819C24.0838 76.8457 24.1596 75.8913 24.7959 75.3459C25.4321 74.8005 26.3865 74.8763 26.9319 75.5125L32.3857 81.8752C32.931 82.5115 32.8553 83.4659 32.219 84.0113C31.9463 84.2537 31.5827 84.3749 31.2343 84.3749Z" fill="#17A582"/>
<path d="M76.6671 73.7552C76.1975 73.7552 75.7279 73.5279 75.4249 73.1189C74.9401 72.4372 75.1068 71.4828 75.7885 71.0131L82.4542 66.3169C83.1359 65.8321 84.0903 65.9987 84.5599 66.6804C85.0447 67.3622 84.8781 68.3166 84.1963 68.7862L77.5306 73.4825C77.2731 73.6643 76.9701 73.7552 76.6671 73.7552Z" fill="#17A582"/>
<path d="M13.4945 76.0276C13.2673 76.0276 13.04 75.9821 12.8128 75.8609L9.78293 74.346C9.04062 73.9673 8.73763 73.0583 9.10121 72.316C9.47995 71.5737 10.3889 71.2707 11.1312 71.6343L14.1611 73.1492C14.9034 73.528 15.2064 74.4369 14.8428 75.1792C14.5853 75.7246 14.055 76.0276 13.4945 76.0276Z" fill="#17A582"/>
<path d="M30.3103 35.579C29.7801 35.579 29.265 35.2911 28.9772 34.8064L25.1899 27.9892C24.7808 27.262 25.0535 26.3379 25.7807 25.9289C26.5078 25.5198 27.432 25.7925 27.841 26.5197L31.6283 33.3369C32.0373 34.064 31.7647 34.9881 31.0375 35.3972C30.8254 35.5184 30.5679 35.579 30.3103 35.579Z" fill="#17A582"/>
<path d="M61.9723 34.8216C61.8208 34.8216 61.6542 34.7913 61.4875 34.7458C60.6998 34.4883 60.2604 33.6248 60.5331 32.837L62.1995 27.8377C62.4571 27.05 63.3206 26.6106 64.1084 26.8833C64.8961 27.1409 65.3354 28.0044 65.0628 28.7921L63.3963 33.7914C63.1994 34.4277 62.6086 34.8216 61.9723 34.8216Z" fill="#17A582"/>
<path d="M21.0087 48.1681C20.7663 48.1681 20.5239 48.1075 20.2966 47.9863L13.9339 44.5777C13.1916 44.1838 12.9189 43.2597 13.3128 42.5326C13.7067 41.7903 14.6308 41.5176 15.358 41.9115L21.7207 45.32C22.463 45.7139 22.7357 46.638 22.3418 47.3652C22.0691 47.8803 21.554 48.1681 21.0087 48.1681Z" fill="#17A582"/>
<path d="M50.6255 73.5583C50.1104 73.5583 49.5953 73.5129 49.0651 73.4371C44.9294 72.7706 42.0813 69.7256 42.5964 66.4988C42.7327 65.6656 43.5053 65.105 44.3234 65.2414C45.1566 65.3777 45.7171 66.1503 45.5808 66.9684C45.3384 68.4682 47.1563 70.0588 49.5348 70.4376C51.9132 70.8163 54.125 69.8771 54.3674 68.3621C54.5037 67.5289 55.2763 66.9684 56.0944 67.1047C56.9276 67.2411 57.4881 68.0137 57.3518 68.8318C56.9276 71.6647 54.0947 73.5583 50.6255 73.5583Z" fill="black"/>
<path d="M59.6297 67.3771C60.7946 67.5628 62.0486 65.771 62.4305 63.3749C62.8124 60.9789 62.1776 58.886 61.0127 58.7004C59.8477 58.5147 58.5937 60.3065 58.2118 62.7025C57.8299 65.0985 58.4647 67.1914 59.6297 67.3771Z" fill="black"/>
<path d="M38.0885 63.9395C39.2535 64.1252 40.5075 62.3333 40.8894 59.9373C41.2713 57.5413 40.6365 55.4484 39.4715 55.2627C38.3066 55.077 37.0526 56.8689 36.6707 59.2649C36.2888 61.6609 36.9236 63.7538 38.0885 63.9395Z" fill="black"/>
<path d="M65.9717 53.7885C65.4263 53.7885 64.8961 53.4855 64.6234 52.9704C63.6387 51.0465 61.4269 51.5616 61.1845 51.6373C60.3816 51.8645 59.5484 51.3949 59.3212 50.592C59.0939 49.7891 59.5636 48.9407 60.3665 48.7135C62.0178 48.2439 65.593 48.2439 67.32 51.5919C67.6987 52.3342 67.4109 53.2431 66.6686 53.637C66.4413 53.7279 66.199 53.7885 65.9717 53.7885Z" fill="black"/>
<path d="M37.7485 49.2892C37.3546 49.2892 36.9759 49.1377 36.6729 48.8347C36.0821 48.2439 36.0821 47.2743 36.6881 46.6986C39.3544 44.0627 42.763 45.1686 44.187 46.123C44.8839 46.5926 45.0656 47.5318 44.596 48.2287C44.1264 48.9256 43.2023 49.1074 42.5054 48.6529C42.2782 48.5014 40.3542 47.3349 38.8241 48.8498C38.5211 49.1377 38.1273 49.2892 37.7485 49.2892Z" fill="black"/>
<path d="M67.2465 72.4935C70.0392 72.9386 72.4578 72.3282 72.6488 71.1302C72.8397 69.9322 70.7307 68.6002 67.9381 68.1551C65.1455 67.71 62.7268 68.3203 62.5358 69.5183C62.3449 70.7163 64.4539 72.0483 67.2465 72.4935Z" fill="#AFD9A5"/>
<path d="M30.6176 66.6473C33.4102 67.0924 35.8289 66.482 36.0198 65.284C36.2108 64.086 34.1017 62.754 31.3091 62.3089C28.5165 61.8638 26.0979 62.4741 25.9069 63.6721C25.716 64.8701 27.825 66.2021 30.6176 66.6473Z" fill="#AFD9A5"/>
<path d="M74.228 131.338C73.7736 131.338 73.3191 131.126 73.0161 130.747C72.5162 130.08 72.6374 129.126 73.3039 128.626C81.6057 122.293 84.4387 111.568 80.515 101.312C77.167 92.5554 77.8942 83.9506 78.6516 74.8308C79.2728 67.3773 79.909 59.6815 78.3941 51.2736C76.8943 42.9567 72.1677 36.8212 64.381 33.0339C58.4576 30.1555 52.8675 29.7919 52.8221 29.7768C52.7766 29.7768 52.7312 29.7768 52.6857 29.7616C52.6403 29.7616 47.8531 29.0951 41.6419 30.7918C33.3401 33.049 26.5381 38.2149 21.4025 46.138C16.9486 53.0158 11.7675 68.2257 10.8889 85.3595C9.93445 104.054 14.5247 118.93 23.8112 127.232C24.4323 127.793 24.4929 128.747 23.9324 129.368C23.3719 129.989 22.4175 130.05 21.7963 129.489C16.4032 124.657 12.4947 117.991 10.1768 109.644C8.19228 102.463 7.40451 94.2522 7.85899 85.208C8.25287 77.391 9.58601 69.2558 11.7069 61.6963C13.6612 54.6974 16.2063 48.577 18.8574 44.4867C21.9175 39.7602 25.614 35.8819 29.8558 32.9581C33.2492 30.61 37.0062 28.883 40.9905 27.8225C47.4592 26.0955 52.4131 26.656 53.0645 26.7469C53.7613 26.7924 59.4272 27.2771 65.6081 30.2464C74.2583 34.4125 79.7121 41.4872 81.3785 50.7131C82.9692 59.5148 82.3026 67.4076 81.6663 75.058C80.9392 83.8143 80.2423 92.101 83.3479 100.206C85.4082 105.584 85.8475 111.219 84.6204 116.506C83.2873 122.278 80.0151 127.278 75.137 131.004C74.8643 131.247 74.5462 131.338 74.228 131.338Z" fill="black"/>
<path d="M79.7271 85.0869C79.7271 85.0869 87.6047 94.631 84.2718 106.902C80.939 119.173 64.2293 122.4 59.124 117.052C54.352 112.053 57.4576 101.297 67.5622 106.947C67.5622 106.947 78.6666 103.569 79.7271 85.0869Z" fill="#8CC382"/>
<path d="M80.924 102.009C82.6964 95.5096 81.3027 89.7681 79.6211 85.8141C81.5905 88.7985 85.8626 96.7367 83.2418 106.357C79.909 118.627 63.1993 121.854 58.094 116.507C57.0032 115.355 56.3215 113.916 56.0488 112.431C61.4571 117.385 77.6517 114.068 80.924 102.009Z" fill="#17A582"/>
<path d="M71.5011 106.341C70.8799 106.341 70.3043 105.963 70.077 105.357L67.9561 99.5999C67.6683 98.8122 68.0622 97.9487 68.8499 97.6608C69.6377 97.373 70.5012 97.7669 70.789 98.5546L72.9099 104.311C73.1978 105.099 72.8039 105.963 72.0161 106.25C71.8495 106.311 71.6677 106.341 71.5011 106.341Z" fill="#17A582"/>
<path d="M66.4716 121.051C62.9267 121.051 59.8513 120.021 58.0183 118.097C56.5337 116.537 55.6247 114.446 55.4429 112.219C55.2611 110.023 55.8519 107.887 57.0336 106.357C58.1698 104.902 59.7605 104.039 61.6541 103.872C63.472 103.705 65.4717 104.19 67.6381 105.296C68.5167 104.902 70.365 103.887 72.2586 101.781C75.743 97.9184 77.8033 92.1162 78.2123 85.0112C78.2426 84.3901 78.6668 83.8447 79.2576 83.6629C79.8484 83.466 80.4998 83.6629 80.8937 84.1325C80.9846 84.2386 83.0298 86.7534 84.6507 90.8437C86.8019 96.2823 87.1807 101.978 85.7263 107.311C84.8174 110.674 82.8783 113.689 80.1211 116.022C77.7124 118.082 74.7279 119.597 71.486 120.415C69.7893 120.839 68.0774 121.051 66.4716 121.051ZM62.3661 106.856C61.139 106.856 60.1392 107.311 59.4423 108.22C57.8516 110.265 58.2152 113.901 60.2301 116.007C62.1237 117.991 66.3655 118.582 70.774 117.461C76.8792 115.916 81.3785 111.81 82.8177 106.493C84.7416 99.403 82.651 93.2373 80.7725 89.5711C79.5909 96.8882 76.7428 101.388 74.3644 103.963C71.2133 107.387 68.138 108.341 68.0017 108.387C67.6078 108.508 67.1836 108.462 66.82 108.265C65.1233 107.326 63.6235 106.856 62.3661 106.856Z" fill="black"/>
<path d="M9.57085 82.5115C9.57085 82.5115 1.69322 92.0555 5.02606 104.326C8.35891 116.597 25.0686 119.824 30.1739 114.476C34.9459 109.477 31.8403 98.7212 21.7357 104.372C21.7357 104.372 10.6313 100.994 9.57085 82.5115Z" fill="#8CC382"/>
<path d="M7.14701 100.191C5.37455 93.6916 6.76828 87.9501 8.44985 83.9961C6.48045 86.9805 2.20835 94.9187 4.82917 104.539C8.16202 116.809 24.8717 120.036 29.977 114.689C31.0677 113.537 31.7495 112.098 32.0222 110.613C26.6139 115.567 10.4193 112.25 7.14701 100.191Z" fill="#17A582"/>
<path d="M17.797 103.766C17.6304 103.766 17.4486 103.736 17.2668 103.675C16.479 103.387 16.0851 102.509 16.373 101.736L18.4939 95.9792C18.7817 95.1914 19.6604 94.7976 20.433 95.0854C21.2208 95.3732 21.6146 96.2519 21.3268 97.0245L19.2059 102.781C18.9938 103.387 18.4181 103.766 17.797 103.766Z" fill="#17A582"/>
<path d="M22.8115 118.476C21.2056 118.476 19.5089 118.264 17.7819 117.825C14.5551 117.006 11.5707 115.492 9.14681 113.431C6.38964 111.083 4.45053 108.068 3.54157 104.72C2.08724 99.3878 2.46597 93.6917 4.61717 88.2531C6.23815 84.1628 8.29845 81.648 8.37419 81.542C8.76808 81.0572 9.41949 80.8754 10.0103 81.0723C10.6011 81.2693 11.0102 81.7995 11.0556 82.4206C11.4647 89.5256 13.525 95.3278 17.0093 99.1909C18.8878 101.281 20.736 102.296 21.6298 102.706C23.7962 101.6 25.811 101.13 27.6138 101.281C29.5075 101.448 31.0981 102.312 32.2343 103.766C33.416 105.296 34.0068 107.432 33.825 109.629C33.6432 111.871 32.7343 113.946 31.2496 115.507C29.4317 117.446 26.3564 118.476 22.8115 118.476ZM8.52569 87.0108C8.14695 87.738 7.76822 88.5712 7.41979 89.4802C5.51098 94.3431 5.20799 99.206 6.49568 103.933C7.93487 109.25 12.4494 113.355 18.5394 114.901C22.9478 116.022 27.1896 115.431 29.0833 113.431C31.083 111.325 31.4617 107.69 29.871 105.644C28.447 103.811 25.8262 103.842 22.4933 105.705C22.1298 105.902 21.7056 105.947 21.3117 105.826C21.1753 105.781 18.1 104.826 14.949 101.403C12.5554 98.8273 9.70733 94.328 8.52569 87.0108Z" fill="black"/>
</g>
<rect x="1.5" y="1.5" width="97" height="97" rx="48.5" stroke="#003B0A" stroke-width="3"/>
<path d="M266.415 56.8905C267.442 54.3755 268.597 52.0145 269.88 49.8075C271.214 47.6005 272.728 45.6757 274.422 44.0333C276.116 42.3909 277.989 41.1077 280.042 40.1838C282.147 39.2086 284.482 38.721 287.048 38.721C288.742 38.721 290.128 38.8237 291.206 39.029C292.335 39.2343 293.336 39.6192 294.208 40.1838V52.8871C293.131 52.6818 291.899 52.3995 290.513 52.0402C289.127 51.6296 287.536 51.4243 285.74 51.4243C284.713 51.4243 283.635 51.6039 282.506 51.9632C281.428 52.2711 280.376 52.7074 279.349 53.272C282.275 53.272 284.739 53.7853 286.74 54.8118C288.742 55.8383 290.333 57.2241 291.514 58.9692C292.694 60.7143 293.541 62.7673 294.054 65.1283C294.568 67.4894 294.824 69.9787 294.824 72.5963V78.6785H280.196V66.6681C280.196 64.1532 279.657 62.3824 278.58 61.3559C277.502 60.3294 275.936 59.8161 273.883 59.8161C271.984 59.8161 270.444 60.2524 269.264 61.1249C268.135 61.9461 267.57 63.2806 267.57 65.1283V78.6785H252.942V20.9365H267.57V49.8075C267.57 50.8853 267.313 52.0658 266.8 53.349C266.338 54.6321 265.902 55.787 265.491 56.8135L266.415 56.8905Z" fill="#58CC02"/>
<path d="M232.36 52.5022C229.281 52.5022 226.868 53.1181 225.123 54.3499C223.429 55.5304 222.582 57.2242 222.582 59.4312C222.582 60.4064 222.736 61.3303 223.044 62.2028C223.352 63.024 223.943 63.7426 224.815 64.3585C225.688 64.9744 226.894 65.462 228.434 65.8213C229.973 66.1806 231.95 66.3602 234.362 66.3602C236.107 66.3602 237.98 66.2319 239.982 65.9753C241.984 65.7187 244.499 65.2567 247.527 64.5895V78.0626C245.833 78.3706 244.345 78.6272 243.062 78.8325C241.83 79.0891 240.624 79.2944 239.443 79.4484C238.314 79.6024 237.159 79.705 235.979 79.7564C234.798 79.8077 233.412 79.8334 231.821 79.8334C227.818 79.8334 224.302 79.3458 221.274 78.3706C218.297 77.3954 215.782 76.0096 213.729 74.2131C211.676 72.4167 210.136 70.2867 209.109 67.823C208.083 65.308 207.57 62.5108 207.57 59.4312C207.57 56.3516 208.057 53.58 209.032 51.1164C210.008 48.6014 211.47 46.4457 213.421 44.6493C215.422 42.8529 217.912 41.467 220.889 40.4919C223.917 39.5167 227.433 39.0291 231.436 39.0291C232.925 39.0291 234.182 39.0547 235.209 39.106C236.287 39.1574 237.339 39.26 238.365 39.414C239.392 39.568 240.495 39.7733 241.676 40.0299C242.856 40.2352 244.293 40.4919 245.987 40.7998V54.2729C244.447 53.9136 243.139 53.6313 242.061 53.426C241.034 53.1694 240.033 52.9898 239.058 52.8871C238.083 52.7331 237.082 52.6305 236.056 52.5792C235.029 52.5278 233.797 52.5022 232.36 52.5022Z" fill="#58CC02"/>
<path d="M186.779 40.1838H201.407V78.6785H186.779V40.1838ZM185.625 27.4806C185.625 25.0683 186.369 23.2462 187.857 22.0144C189.346 20.7825 191.45 20.1666 194.17 20.1666C199.765 20.1666 202.562 22.6046 202.562 27.4806C202.562 29.8416 201.844 31.6637 200.406 32.9468C199.021 34.1787 196.942 34.7946 194.17 34.7946C191.45 34.7946 189.346 34.1787 187.857 32.9468C186.369 31.6637 185.625 29.8416 185.625 27.4806Z" fill="#58CC02"/>
<path d="M164.449 20.9365H179.077V78.6785H164.449V20.9365Z" fill="#58CC02"/>
<path d="M159.03 37.8742H138.628V50.9624H156.335V58.6613H138.628V78.6785H124V24.786H159.03V37.8742Z" fill="#58CC02"/>
<defs>
<clipPath id="clip0_100_502">
<rect width="100" height="100" rx="50" fill="white"/>
</clipPath>
</defs>
</svg>
